<svg xmlns="http://www.w3.org/2000/svg" width="106.706" height="80.029" viewBox="0 0 106.706 80.029"><g transform="translate(0 -64)"><path d="M84.007,324.446H66.223a2.223,2.223,0,1,1,0-4.446H84.007a2.223,2.223,0,1,1,0,4.446Z" transform="translate(-50.662 -202.647)" fill="#fafafa"/><path d="M108.889,299.563a2.223,2.223,0,0,1-2.223-2.223V279.556a2.223,2.223,0,1,1,4.446,0V297.34A2.223,2.223,0,0,1,108.889,299.563Z" transform="translate(-84.436 -168.872)" fill="#fafafa"/><path d="M180.027,64H117.782a11.115,11.115,0,0,0-11.115,11.115v44.461a2.223,2.223,0,0,0,2.223,2.223h71.137a11.115,11.115,0,0,0,11.115-11.115V75.115A11.115,11.115,0,0,0,180.027,64Z" transform="translate(-84.437)" fill="#cfd8dc"/><circle cx="24.453" cy="24.453" r="24.453" transform="translate(0 95.123)" fill="#ee4c7d"/><path d="M333.194,200.9a4.388,4.388,0,0,1,1.489-3.286,2.223,2.223,0,0,0,0-3.3,8.892,8.892,0,1,0,0,13.174,2.223,2.223,0,0,0,0-3.3A4.388,4.388,0,0,1,333.194,200.9Z" transform="translate(-253.164 -101.332)" fill="#ee4c7d"/><circle cx="8.892" cy="8.892" r="8.892" transform="translate(75.583 91.859)" fill="#455a64"/><g transform="translate(35.569 77.338)"><path d="M177.336,132.446H172.89a2.223,2.223,0,1,1,0-4.446h4.446a2.223,2.223,0,0,1,0,4.446Z" transform="translate(-170.667 -128)" fill="#90a4ae"/><path d="M241.336,132.446H236.89a2.223,2.223,0,1,1,0-4.446h4.446a2.223,2.223,0,0,1,0,4.446Z" transform="translate(-221.329 -128)" fill="#90a4ae"/><path d="M305.336,132.446H300.89a2.223,2.223,0,1,1,0-4.446h4.446a2.223,2.223,0,1,1,0,4.446Z" transform="translate(-271.991 -128)" fill="#90a4ae"/><path d="M369.336,132.446H364.89a2.223,2.223,0,1,1,0-4.446h4.446a2.223,2.223,0,1,1,0,4.446Z" transform="translate(-322.652 -128)" fill="#90a4ae"/><path d="M212.007,196.446H194.223a2.223,2.223,0,1,1,0-4.446h17.784a2.223,2.223,0,1,1,0,4.446Z" transform="translate(-187.554 -178.662)" fill="#90a4ae"/><path d="M262.669,260.445h-4.446a2.223,2.223,0,0,1,0-4.446h4.446a2.223,2.223,0,0,1,0,4.446Z" transform="translate(-238.216 -229.323)" fill="#90a4ae"/></g><g transform="translate(13.338 117.353)"><path d="M84.007,324.446H66.223a2.223,2.223,0,1,1,0-4.446H84.007a2.223,2.223,0,1,1,0,4.446Z" transform="translate(-64 -320)" fill="#fafafa"/></g><path d="M111.112,279.556V297.34a2.223,2.223,0,1,1-4.446,0V279.556a2.223,2.223,0,1,1,4.446,0Z" transform="translate(-84.436 -168.872)" fill="#fafafa"/></g></svg>