<svg xmlns="http://www.w3.org/2000/svg" width="76.491" height="73.051" viewBox="0 0 76.491 73.051"><ellipse cx="35" cy="33" rx="35" ry="33" transform="translate(3.5 4)" fill="#fff"/><path d="M152.839,136.935l-13.682,13.681-5.715-5.713a3.187,3.187,0,1,0-4.507,4.507l7.968,7.968a3.185,3.185,0,0,0,4.507,0l15.936-15.936a3.187,3.187,0,0,0-4.507-4.507Z" transform="translate(-102.505 -110.631)" fill="#ee4c7d"/><path d="M73.3,33.482a3.119,3.119,0,0,0-3.187,3.044c0,16.784-14.3,30.438-31.871,30.438S6.374,53.309,6.374,36.526,20.672,6.088,38.245,6.088a32.406,32.406,0,0,1,22.613,8.993,3.294,3.294,0,0,0,4.508.017,2.946,2.946,0,0,0,.016-4.3A38.884,38.884,0,0,0,38.245,0C17.156,0,0,16.385,0,36.526S17.156,73.051,38.245,73.051,76.491,56.667,76.491,36.526A3.119,3.119,0,0,0,73.3,33.482Z" transform="translate(0 0)" fill="#ee4c7d"/></svg>