<svg id="Layer_1" enable-background="new 0 0 512.018 512.018" height="512" viewBox="0 0 512.018 512.018" width="512" xmlns="http://www.w3.org/2000/svg"><g><path d="m360.282 96.753c-46.547-55.655-92.479-91.823-94.412-93.335-10.473-8.193-25.861-.736-25.861 12.6v70.358c0 36.335-48.075 49.125-66.104 17.54-5.568-9.754-19.184-10.858-26.271-2.209-48.434 59.1-91.625 133.598-91.625 210.311 0 110.28 89.72 200 200 200s200-89.72 200-200c0-78.711-45.479-155.187-95.727-215.265zm-104.273 383.265c-92.636 0-168-75.364-168-168 0-64.54 36.903-128.379 72.284-174.746 41.915 37.016 111.716 8.571 111.716-50.896v-35.438c70.952 64.823 152 165.149 152 261.08 0 92.636-75.364 168-168 168z"/><path d="m321.832 227.388c-6.974-5.424-17.026-4.168-22.453 2.807l-112 144c-8.228 10.58-.519 25.824 12.619 25.824 4.768 0 9.486-2.123 12.641-6.178l112-144c5.425-6.975 4.168-17.028-2.807-22.453z"/><circle cx="312.009" cy="368.018" r="32"/><circle cx="200.009" cy="256.018" r="32"/></g></svg>