<svg xmlns="http://www.w3.org/2000/svg" width="80.332" height="61.735" viewBox="0 0 80.332 61.735"><path d="M43.175,56.228a4.47,4.47,0,1,1,4.469,4.506A4.488,4.488,0,0,1,43.175,56.228Zm-14.688,0a4.47,4.47,0,1,1,4.469,4.506A4.488,4.488,0,0,1,28.487,56.228ZM16.622,48.85a2.749,2.749,0,0,1,0-5.5h41.12L72.188,12.495l-31.451.034a2.738,2.738,0,0,1,0-5.476l35.58-.04a2.69,2.69,0,0,1,1.323.258,2.753,2.753,0,0,1,1.3,3.65L62,47.1a2.727,2.727,0,0,1-2.54,1.75Zm-13.9,0a2.749,2.749,0,0,1,0-5.5H8.5a2.749,2.749,0,0,1,0,5.5ZM7.252,35.756a2.749,2.749,0,0,1,0-5.5H53.59a2.749,2.749,0,0,1,0,5.5ZM52.378,23.131a2.748,2.748,0,0,1,0-5.5h5.774a2.748,2.748,0,0,1,0,5.5Zm-37.875,0a2.748,2.748,0,0,1,0-5.5H18.14L14.349,5.477H5.042A2.738,2.738,0,0,1,5.042,0H16.348a2.721,2.721,0,0,1,2.594,1.923h0l4.9,15.712H44.256a2.748,2.748,0,0,1,0,5.5Z" transform="translate(0.5 0.5)" fill="#ee4c7d" stroke="#ee4c7d" stroke-miterlimit="5" stroke-width="0.5"/></svg>