<svg xmlns="http://www.w3.org/2000/svg" width="14.983" height="19.629" viewBox="0 0 14.983 19.629"><g transform="translate(-54.096 0.6)"><g transform="translate(54.696)"><path d="M63.767,17.707H56.176a.775.775,0,0,1-.757-.744V1.418a.733.733,0,0,1,.757-.7h7.592a.361.361,0,0,0,0-.723H56.176A1.456,1.456,0,0,0,54.7,1.418V16.963a1.5,1.5,0,0,0,1.48,1.467h7.592a.361.361,0,0,0,0-.723Z" transform="translate(-54.696)" fill="#ee4c7d" stroke="#ee4c7d" stroke-width="1.2"/></g><g transform="translate(68.479 12.623) rotate(180)"><g transform="translate(0 0)"><path d="M9.034,3.633H1.173L3.882.611A.369.369,0,0,0,3.855.094a.361.361,0,0,0-.51.024L.093,3.73.08,3.747a.367.367,0,0,0-.024.032c-.006.009-.01.018-.015.028a.359.359,0,0,0-.016.034c0,.011-.007.021-.01.032s-.007.022-.009.034a.371.371,0,0,0,0,.039c0,.008,0,.016,0,.025s0,0,0,.005a.35.35,0,0,0,0,.044c0,.009,0,.017,0,.026a.372.372,0,0,0,.013.041.355.355,0,0,0,.035.074l.006.011a.37.37,0,0,0,.046.055L3.358,7.478a.361.361,0,0,0,.511,0,.347.347,0,0,0,0-.5L1.234,4.356h7.8a.361.361,0,0,0,0-.723Z" fill="#ee4c7d" stroke="#ee4c7d" stroke-width="1.2"/></g></g></g></svg>