<svg xmlns="http://www.w3.org/2000/svg" width="20.499" height="20.499" viewBox="0 0 20.499 20.499"><g transform="translate(0.4 0.4)"><path d="M25.3,16.6A2.3,2.3,0,1,0,23,14.3,2.3,2.3,0,0,0,25.3,16.6Zm0-3.94A1.642,1.642,0,1,1,23.657,14.3,1.643,1.643,0,0,1,25.3,12.657Z" transform="translate(-15.449 -8.06)" fill="#ee4c7d" stroke="#ee4c7d" stroke-width="0.8"/><path d="M16.942,17.978,21.979,10.7a7.174,7.174,0,0,0-.585-8.859,6.3,6.3,0,0,0-8.9,0,7.172,7.172,0,0,0-.592,8.849ZM12.954,2.308a5.64,5.64,0,0,1,7.976,0,6.482,6.482,0,0,1,.516,8.011l-4.5,6.505-4.512-6.515A6.479,6.479,0,0,1,12.954,2.308Z" transform="translate(-7.151 0)" fill="#ee4c7d" stroke="#ee4c7d" stroke-width="0.8"/><path d="M13.828,43a.328.328,0,1,0-.077.652c3.453.406,5.292,1.5,5.292,2.136,0,.891-3.5,2.134-9.193,2.134S.657,46.681.657,45.79c0-.635,1.839-1.73,5.292-2.136A.328.328,0,1,0,5.871,43C2.414,43.409,0,44.555,0,45.79c0,1.387,3.383,2.791,9.85,2.791s9.85-1.4,9.85-2.791C19.7,44.555,17.285,43.409,13.828,43Z" transform="translate(0 -28.882)" fill="#ee4c7d" stroke="#ee4c7d" stroke-width="0.8"/></g></svg>