<svg xmlns="http://www.w3.org/2000/svg" width="40.486" height="38.725" viewBox="0 0 40.486 38.725"><g transform="translate(0 0)"><g transform="translate(10.562 29.924)"><circle cx="4.401" cy="4.401" r="4.401" transform="translate(17.602)" fill="#fbfbfb"/><circle cx="4.401" cy="4.401" r="4.401" fill="#fbfbfb"/></g><path d="M-2935.5-2416.636l-.059,0a.883.883,0,0,1-.862-.7l-3.52-17.6a.851.851,0,0,1-.018-.176.881.881,0,0,1,.88-.88h31.685a.882.882,0,0,1,.66.3.878.878,0,0,1,.213.7l-1.76,14.083a.881.881,0,0,1-.757.764l-26.4,3.52Zm1.707-15.818a.883.883,0,0,0-.118.008.882.882,0,0,0-.754.991l1.76,10.561a.876.876,0,0,0,.868.736.877.877,0,0,0,.144-.012.877.877,0,0,0,.572-.356.873.873,0,0,0,.152-.656l-1.76-10.562A.881.881,0,0,0-2933.792-2432.453Zm5.278-.03c-.027,0-.054,0-.081,0h-.007a.875.875,0,0,0-.6.315.873.873,0,0,0-.2.644l.88,9.681a.875.875,0,0,0,.876.8l.083-.007a.882.882,0,0,0,.8-.956l-.88-9.681A.886.886,0,0,0-2928.515-2432.483Zm5.279,0a.881.881,0,0,0-.88.88v8.8a.881.881,0,0,0,.88.88.881.881,0,0,0,.88-.88v-8.8A.881.881,0,0,0-2923.236-2432.479Zm5.286,0a.891.891,0,0,0-.885.788l-.88,7.921,0,.009a.882.882,0,0,0,.783.967h.1a.878.878,0,0,0,.875-.788l.88-7.921a.882.882,0,0,0-.779-.972A.848.848,0,0,0-2917.95-2432.484Zm5.28-.015a.887.887,0,0,0-.859.687l-1.76,7.042a.844.844,0,0,0-.026.212.872.872,0,0,0,.257.622.874.874,0,0,0,.623.258.88.88,0,0,0,.854-.667l1.76-7.041,0-.012c0-.009,0-.018.007-.028a.873.873,0,0,0-.114-.664.876.876,0,0,0-.551-.388A.908.908,0,0,0-2912.67-2432.5Z" transform="translate(2946.999 2441.281)" fill="#fbfbfb"/><path d="M36.085,38.834H15.77a6.178,6.178,0,0,1-6.041-4.952L5.439,12.43H.88a.88.88,0,0,1,0-1.76H6.161a.88.88,0,0,1,.862.7l4.432,22.161a4.413,4.413,0,0,0,4.314,3.538H36.085a.88.88,0,1,1,0,1.76Z" transform="translate(0 -10.67)" fill="#fbfbfb"/></g></svg>