<?xml version="1.0"?>
<svg xmlns="http://www.w3.org/2000/svg" viewBox="0 0 64 64" width="512" height="512"><g id="Money-2" data-name="Money"><path d="M22,52H10a1,1,0,0,0,0,2H22a1,1,0,0,0,0-2Z"/><path d="M57,6H39a5.006,5.006,0,0,0-5,5V28H30V11a5.006,5.006,0,0,0-5-5H7a5.006,5.006,0,0,0-5,5V53a5.006,5.006,0,0,0,5,5H25a5.006,5.006,0,0,0,5-5V36h4V53a5.006,5.006,0,0,0,5,5H57a5.006,5.006,0,0,0,5-5V11A5.006,5.006,0,0,0,57,6ZM43,8H53V9a1,1,0,0,1-1,1H44a1,1,0,0,1-1-1ZM39,34H24V30H39a1,1,0,0,0,1-1V27.044L46.371,32,40,36.956V35A1,1,0,0,0,39,34ZM11,8H21V9a1,1,0,0,1-1,1H12a1,1,0,0,1-1-1ZM28,53a3,3,0,0,1-3,3H7a3,3,0,0,1-3-3V11A3,3,0,0,1,7,8H9V9a3,3,0,0,0,3,3h8a3,3,0,0,0,3-3V8h2a3,3,0,0,1,3,3V28H23a1,1,0,0,0-1,1v6a1,1,0,0,0,1,1h5Zm32,0a3,3,0,0,1-3,3H39a3,3,0,0,1-3-3V36h2v3a1,1,0,0,0,1.614.79l9-7a1,1,0,0,0,0-1.58l-9-7A1,1,0,0,0,38,25v3H36V11a3,3,0,0,1,3-3h2V9a3,3,0,0,0,3,3h8a3,3,0,0,0,3-3V8h2a3,3,0,0,1,3,3Z"/><path d="M54,52H42a1,1,0,0,0,0,2H54a1,1,0,0,0,0-2Z"/><path d="M14,37a2,2,0,0,1-2-2,1,1,0,0,0-2,0,4,4,0,0,0,3,3.858V41a1,1,0,0,0,2,0V38.858A3.992,3.992,0,0,0,14,31a2,2,0,1,1,2-2,1,1,0,0,0,2,0,4,4,0,0,0-3-3.858V23a1,1,0,0,0-2,0v2.142A3.992,3.992,0,0,0,14,33a2,2,0,0,1,0,4Z"/></g></svg>
