<svg xmlns="http://www.w3.org/2000/svg" width="55.125" height="16.2" viewBox="0 0 55.125 16.2">
  <path id="Combined_Shape" data-name="Combined Shape" d="M26.669,15.315l.669-3.513c1.841,1.339,7.422,1.719,7.422-.4s-6.222-2.174-6.222-6.218c0-4.3,5.3-5.181,7.533-5.181a14.159,14.159,0,0,1,4.045.682l-.642,3.361c-1.925-.96-6.306-1.188-6.306.581s6.277,2.147,6.277,6.217c0,3.918-4.631,5.358-7.7,5.358A13.7,13.7,0,0,1,26.669,15.315Zm-13.37.615H8.613L4.7,2.335A18.057,18.057,0,0,0,0,.545L.083.28H7.172C9.1.28,9.3,1.675,9.306,1.689L10.82,8.727l.507,2.317L15.615.28h4.841L13.3,15.931h0Zm30.512,0H39.123L45.831,1.446A2.07,2.07,0,0,1,47.908.279h3.616l3.6,15.65h-4.13l-.527-2.325H44.749l-.938,2.325h0Zm2.235-5.537h3.693L48.409,4.537ZM23.9,15.93H19.4L22.211.28h4.5L23.9,15.93h0Z" fill="#fff"/>
</svg>
